<mxfile host="app.diagrams.net" modified="2023-10-25T02:42:56.228Z" agent="Mozilla/5.0 (Windows NT 10.0; Win64; x64) AppleWebKit/537.36 (KHTML, like Gecko) Chrome/118.0.0.0 Safari/537.36" version="21.6.9" etag="mPOnMKdyMxxO_af5Q0N3" type="github">
  <diagram name="第 1 页" id="KD93KFElB0P_ezoEmi2Q">
    <mxGraphModel>
      <root>
        <mxCell id="0" />
        <mxCell id="1" parent="0" />
      </root>
    </mxGraphModel>
  </diagram>
</mxfile>
